# xmcd
#
# Track frame offsets:
#	150
#	13387
#	29332
#	45435
#	58952
#	71930
#	90417
#	103215
#	116045
#	130997
#	145147
#
# Disc length: 2116 seconds
#
# Revision: 0
# Processed by: cddbd v1.5.1PL0 Copyright (c) Steve Scherf et al.
# Submitted via: audiograbber 1.83.01
#
DISCID=a408420b
DTITLE=Haggard, Merle - Way I Am, The
DYEAR=1980
DGENRE=Country
TTITLE0=Way I Am, The
TTITLE1=Sky-Bo
TTITLE2=No One to Sing For (But the Band)
TTITLE3=I'm the One Who Loves You, (Remember Me)
TTITLE4=Life's Just Not the Way It Used to Be
TTITLE5=Wake Up
TTITLE6=Where Have You Been
TTITLE7=Take Me Back and Try Me One More Time
TTITLE8=I'll Always Be Glad to Take You Back
TTITLE9=It Makes No Difference Now
TTITLE10=It's Been So Long Darlin'
EXTD=
EXTT0=
EXTT1=
EXTT2=
EXTT3=
EXTT4=
EXTT5=
EXTT6=
EXTT7=
EXTT8=
EXTT9=
EXTT10=
PLAYORDER=
